<svg id="visual" viewBox="0 0 960 540" width="960" height="540" xmlns="http://www.w3.org/2000/svg" xmlns:xlink="http://www.w3.org/1999/xlink" version="1.1"><rect width="960" height="540" fill="#090909"></rect><g><g transform="translate(158 117)"><path d="M0 -12.8L11.1 -6.4L11.1 6.4L0 12.8L-11.1 6.4L-11.1 -6.4Z" fill="none" stroke="#890000" stroke-width="2"></path></g><g transform="translate(811 326)"><path d="M0 -11L9.5 -5.5L9.5 5.5L0 11L-9.5 5.5L-9.5 -5.5Z" fill="none" stroke="#890000" stroke-width="2"></path></g><g transform="translate(318 92)"><path d="M0 -10L8.7 -5L8.7 5L0 10L-8.7 5L-8.7 -5Z" fill="none" stroke="#890000" stroke-width="2"></path></g><g transform="translate(673 403)"><path d="M0 -11L9.5 -5.5L9.5 5.5L0 11L-9.5 5.5L-9.5 -5.5Z" fill="none" stroke="#890000" stroke-width="2"></path></g><g transform="translate(714 453)"><path d="M0 -10L8.7 -5L8.7 5L0 10L-8.7 5L-8.7 -5Z" fill="none" stroke="#890000" stroke-width="2"></path></g><g transform="translate(32 296)"><path d="M0 -8L6.9 -4L6.9 4L0 8L-6.9 4L-6.9 -4Z" fill="none" stroke="#890000" stroke-width="2"></path></g><g transform="translate(503 330)"><path d="M0 -11L9.5 -5.5L9.5 5.5L0 11L-9.5 5.5L-9.5 -5.5Z" fill="none" stroke="#890000" stroke-width="2"></path></g><g transform="translate(73 219)"><path d="M0 -8L6.9 -4L6.9 4L0 8L-6.9 4L-6.9 -4Z" fill="none" stroke="#890000" stroke-width="2"></path></g><g transform="translate(346 536)"><path d="M0 -9L7.8 -4.5L7.8 4.5L0 9L-7.8 4.5L-7.8 -4.5Z" fill="none" stroke="#890000" stroke-width="2"></path></g><g transform="translate(414 470)"><path d="M0 -11L9.5 -5.5L9.5 5.5L0 11L-9.5 5.5L-9.5 -5.5Z" fill="none" stroke="#890000" stroke-width="2"></path></g><g transform="translate(449 435)"><path d="M0 -9L7.8 -4.5L7.8 4.5L0 9L-7.8 4.5L-7.8 -4.5Z" fill="none" stroke="#890000" stroke-width="2"></path></g><g transform="translate(128 101)"><path d="M0 -11L9.5 -5.5L9.5 5.5L0 11L-9.5 5.5L-9.5 -5.5Z" fill="none" stroke="#890000" stroke-width="2"></path></g><g transform="translate(615 363)"><path d="M0 -8L6.9 -4L6.9 4L0 8L-6.9 4L-6.9 -4Z" fill="none" stroke="#890000" stroke-width="2"></path></g><g transform="translate(226 404)"><path d="M0 -11L9.5 -5.5L9.5 5.5L0 11L-9.5 5.5L-9.5 -5.5Z" fill="none" stroke="#890000" stroke-width="2"></path></g><g transform="translate(340 364)"><path d="M0 -9L7.8 -4.5L7.8 4.5L0 9L-7.8 4.5L-7.8 -4.5Z" fill="none" stroke="#890000" stroke-width="2"></path></g><g transform="translate(790 237)"><path d="M0 -8L6.9 -4L6.9 4L0 8L-6.9 4L-6.9 -4Z" fill="none" stroke="#890000" stroke-width="2"></path></g><g transform="translate(685 487)"><path d="M0 -9L7.8 -4.5L7.8 4.5L0 9L-7.8 4.5L-7.8 -4.5Z" fill="none" stroke="#890000" stroke-width="2"></path></g><g transform="translate(830 107)"><path d="M0 -8L6.9 -4L6.9 4L0 8L-6.9 4L-6.9 -4Z" fill="none" stroke="#890000" stroke-width="2"></path></g><g transform="translate(951 7)"><path d="M0 -9L7.8 -4.5L7.8 4.5L0 9L-7.8 4.5L-7.8 -4.5Z" fill="none" stroke="#890000" stroke-width="2"></path></g><g transform="translate(937 304)"><path d="M0 -9L7.8 -4.5L7.8 4.5L0 9L-7.8 4.5L-7.8 -4.5Z" fill="none" stroke="#890000" stroke-width="2"></path></g><g transform="translate(22 485)"><path d="M0 -8L6.9 -4L6.9 4L0 8L-6.9 4L-6.9 -4Z" fill="none" stroke="#890000" stroke-width="2"></path></g><g transform="translate(801 116)"><path d="M0 -9L7.8 -4.5L7.8 4.5L0 9L-7.8 4.5L-7.8 -4.5Z" fill="none" stroke="#890000" stroke-width="2"></path></g><g transform="translate(686 315)"><path d="M0 -8L6.9 -4L6.9 4L0 8L-6.9 4L-6.9 -4Z" fill="none" stroke="#890000" stroke-width="2"></path></g><g transform="translate(697 235)"><path d="M0 -10L8.7 -5L8.7 5L0 10L-8.7 5L-8.7 -5Z" fill="none" stroke="#890000" stroke-width="2"></path></g><g transform="translate(650 244)"><path d="M0 -8L6.9 -4L6.9 4L0 8L-6.9 4L-6.9 -4Z" fill="none" stroke="#890000" stroke-width="2"></path></g><g transform="translate(75 408)"><path d="M0 -11L9.5 -5.5L9.5 5.5L0 11L-9.5 5.5L-9.5 -5.5Z" fill="none" stroke="#890000" stroke-width="2"></path></g><g transform="translate(434 261)"><path d="M0 -9L7.8 -4.5L7.8 4.5L0 9L-7.8 4.5L-7.8 -4.5Z" fill="none" stroke="#890000" stroke-width="2"></path></g><g transform="translate(60 371)"><path d="M0 -8L6.9 -4L6.9 4L0 8L-6.9 4L-6.9 -4Z" fill="none" stroke="#890000" stroke-width="2"></path></g><g transform="translate(155 532)"><path d="M0 -10L8.7 -5L8.7 5L0 10L-8.7 5L-8.7 -5Z" fill="none" stroke="#890000" stroke-width="2"></path></g><g transform="translate(732 82)"><path d="M0 -9L7.8 -4.5L7.8 4.5L0 9L-7.8 4.5L-7.8 -4.5Z" fill="none" stroke="#890000" stroke-width="2"></path></g><g transform="translate(935 51)"><path d="M0 -10L8.7 -5L8.7 5L0 10L-8.7 5L-8.7 -5Z" fill="none" stroke="#890000" stroke-width="2"></path></g><g transform="translate(415 430)"><path d="M0 -10L8.7 -5L8.7 5L0 10L-8.7 5L-8.7 -5Z" fill="none" stroke="#890000" stroke-width="2"></path></g><g transform="translate(343 311)"><path d="M0 -8L6.9 -4L6.9 4L0 8L-6.9 4L-6.9 -4Z" fill="none" stroke="#890000" stroke-width="2"></path></g><g transform="translate(446 138)"><path d="M0 -9L7.8 -4.5L7.8 4.5L0 9L-7.8 4.5L-7.8 -4.5Z" fill="none" stroke="#890000" stroke-width="2"></path></g><g transform="translate(47 404)"><path d="M0 -9L7.8 -4.5L7.8 4.5L0 9L-7.8 4.5L-7.8 -4.5Z" fill="none" stroke="#890000" stroke-width="2"></path></g><g transform="translate(151 442)"><path d="M0 -10L8.7 -5L8.7 5L0 10L-8.7 5L-8.7 -5Z" fill="none" stroke="#890000" stroke-width="2"></path></g><g transform="translate(796 379)"><path d="M0 -10L8.7 -5L8.7 5L0 10L-8.7 5L-8.7 -5Z" fill="none" stroke="#890000" stroke-width="2"></path></g><g transform="translate(695 131)"><path d="M0 -9L7.8 -4.5L7.8 4.5L0 9L-7.8 4.5L-7.8 -4.5Z" fill="none" stroke="#890000" stroke-width="2"></path></g><g transform="translate(849 511)"><path d="M0 -8L6.9 -4L6.9 4L0 8L-6.9 4L-6.9 -4Z" fill="none" stroke="#890000" stroke-width="2"></path></g><g transform="translate(209 165)"><path d="M0 -11L9.5 -5.5L9.5 5.5L0 11L-9.5 5.5L-9.5 -5.5Z" fill="none" stroke="#890000" stroke-width="2"></path></g><g transform="translate(541 19)"><path d="M0 -8L6.9 -4L6.9 4L0 8L-6.9 4L-6.9 -4Z" fill="none" stroke="#890000" stroke-width="2"></path></g><g transform="translate(606 49)"><path d="M0 -9L7.8 -4.5L7.8 4.5L0 9L-7.8 4.5L-7.8 -4.5Z" fill="none" stroke="#890000" stroke-width="2"></path></g><g transform="translate(872 447)"><path d="M0 -11L9.5 -5.5L9.5 5.5L0 11L-9.5 5.5L-9.5 -5.5Z" fill="none" stroke="#890000" stroke-width="2"></path></g><g transform="translate(590 490)"><path d="M0 -8L6.9 -4L6.9 4L0 8L-6.9 4L-6.9 -4Z" fill="none" stroke="#890000" stroke-width="2"></path></g><g transform="translate(436 401)"><path d="M0 -11L9.5 -5.5L9.5 5.5L0 11L-9.5 5.5L-9.5 -5.5Z" fill="none" stroke="#890000" stroke-width="2"></path></g><g transform="translate(232 197)"><path d="M0 -8L6.9 -4L6.9 4L0 8L-6.9 4L-6.9 -4Z" fill="none" stroke="#890000" stroke-width="2"></path></g><g transform="translate(116 319)"><path d="M0 -8L6.9 -4L6.9 4L0 8L-6.9 4L-6.9 -4Z" fill="none" stroke="#890000" stroke-width="2"></path></g><g transform="translate(291 410)"><path d="M0 -9L7.8 -4.5L7.8 4.5L0 9L-7.8 4.5L-7.8 -4.5Z" fill="none" stroke="#890000" stroke-width="2"></path></g><g transform="translate(20 124)"><path d="M0 -10L8.7 -5L8.7 5L0 10L-8.7 5L-8.7 -5Z" fill="none" stroke="#890000" stroke-width="2"></path></g><g transform="translate(846 420)"><path d="M0 -8L6.9 -4L6.9 4L0 8L-6.9 4L-6.9 -4Z" fill="none" stroke="#890000" stroke-width="2"></path></g><g transform="translate(913 446)"><path d="M0 -11L9.5 -5.5L9.5 5.5L0 11L-9.5 5.5L-9.5 -5.5Z" fill="none" stroke="#890000" stroke-width="2"></path></g><g transform="translate(46 201)"><path d="M0 -9L7.8 -4.5L7.8 4.5L0 9L-7.8 4.5L-7.8 -4.5Z" fill="none" stroke="#890000" stroke-width="2"></path></g><g transform="translate(597 21)"><path d="M0 -10L8.7 -5L8.7 5L0 10L-8.7 5L-8.7 -5Z" fill="none" stroke="#890000" stroke-width="2"></path></g><g transform="translate(527 66)"><path d="M0 -8L6.9 -4L6.9 4L0 8L-6.9 4L-6.9 -4Z" fill="none" stroke="#890000" stroke-width="2"></path></g><g transform="translate(241 74)"><path d="M0 -8L6.9 -4L6.9 4L0 8L-6.9 4L-6.9 -4Z" fill="none" stroke="#890000" stroke-width="2"></path></g><g transform="translate(434 110)"><path d="M0 -9L7.8 -4.5L7.8 4.5L0 9L-7.8 4.5L-7.8 -4.5Z" fill="none" stroke="#890000" stroke-width="2"></path></g><g transform="translate(531 288)"><path d="M0 -10L8.7 -5L8.7 5L0 10L-8.7 5L-8.7 -5Z" fill="none" stroke="#890000" stroke-width="2"></path></g><g transform="translate(749 10)"><path d="M0 -8L6.9 -4L6.9 4L0 8L-6.9 4L-6.9 -4Z" fill="none" stroke="#890000" stroke-width="2"></path></g><g transform="translate(53 110)"><path d="M0 -8L6.9 -4L6.9 4L0 8L-6.9 4L-6.9 -4Z" fill="none" stroke="#890000" stroke-width="2"></path></g><g transform="translate(184 198)"><path d="M0 -10L8.7 -5L8.7 5L0 10L-8.7 5L-8.7 -5Z" fill="none" stroke="#890000" stroke-width="2"></path></g><g transform="translate(305 329)"><path d="M0 -11L9.5 -5.5L9.5 5.5L0 11L-9.5 5.5L-9.5 -5.5Z" fill="none" stroke="#890000" stroke-width="2"></path></g><g transform="translate(687 346)"><path d="M0 -11L9.5 -5.5L9.5 5.5L0 11L-9.5 5.5L-9.5 -5.5Z" fill="none" stroke="#890000" stroke-width="2"></path></g><g transform="translate(826 221)"><path d="M0 -11L9.5 -5.5L9.5 5.5L0 11L-9.5 5.5L-9.5 -5.5Z" fill="none" stroke="#890000" stroke-width="2"></path></g><g transform="translate(532 527)"><path d="M0 -8L6.9 -4L6.9 4L0 8L-6.9 4L-6.9 -4Z" fill="none" stroke="#890000" stroke-width="2"></path></g><g transform="translate(291 365)"><path d="M0 -11L9.5 -5.5L9.5 5.5L0 11L-9.5 5.5L-9.5 -5.5Z" fill="none" stroke="#890000" stroke-width="2"></path></g><g transform="translate(302 150)"><path d="M0 -9L7.8 -4.5L7.8 4.5L0 9L-7.8 4.5L-7.8 -4.5Z" fill="none" stroke="#890000" stroke-width="2"></path></g><g transform="translate(319 526)"><path d="M0 -11L9.5 -5.5L9.5 5.5L0 11L-9.5 5.5L-9.5 -5.5Z" fill="none" stroke="#890000" stroke-width="2"></path></g><g transform="translate(314 50)"><path d="M0 -8L6.9 -4L6.9 4L0 8L-6.9 4L-6.9 -4Z" fill="none" stroke="#890000" stroke-width="2"></path></g><g transform="translate(662 300)"><path d="M0 -8L6.9 -4L6.9 4L0 8L-6.9 4L-6.9 -4Z" fill="none" stroke="#890000" stroke-width="2"></path></g><g transform="translate(276 52)"><path d="M0 -8L6.9 -4L6.9 4L0 8L-6.9 4L-6.9 -4Z" fill="none" stroke="#890000" stroke-width="2"></path></g><g transform="translate(462 78)"><path d="M0 -8L6.9 -4L6.9 4L0 8L-6.9 4L-6.9 -4Z" fill="none" stroke="#890000" stroke-width="2"></path></g><g transform="translate(724 479)"><path d="M0 -8L6.9 -4L6.9 4L0 8L-6.9 4L-6.9 -4Z" fill="none" stroke="#890000" stroke-width="2"></path></g><g transform="translate(340 136)"><path d="M0 -10L8.7 -5L8.7 5L0 10L-8.7 5L-8.7 -5Z" fill="none" stroke="#890000" stroke-width="2"></path></g><g transform="translate(229 99)"><path d="M0 -10L8.7 -5L8.7 5L0 10L-8.7 5L-8.7 -5Z" fill="none" stroke="#890000" stroke-width="2"></path></g><g transform="translate(657 90)"><path d="M0 -11L9.5 -5.5L9.5 5.5L0 11L-9.5 5.5L-9.5 -5.5Z" fill="none" stroke="#890000" stroke-width="2"></path></g><g transform="translate(673 51)"><path d="M0 -11L9.5 -5.5L9.5 5.5L0 11L-9.5 5.5L-9.5 -5.5Z" fill="none" stroke="#890000" stroke-width="2"></path></g><g transform="translate(886 254)"><path d="M0 -9L7.8 -4.5L7.8 4.5L0 9L-7.8 4.5L-7.8 -4.5Z" fill="none" stroke="#890000" stroke-width="2"></path></g><g transform="translate(956 513)"><path d="M0 -8L6.9 -4L6.9 4L0 8L-6.9 4L-6.9 -4Z" fill="none" stroke="#890000" stroke-width="2"></path></g><g transform="translate(612 468)"><path d="M0 -11L9.5 -5.5L9.5 5.5L0 11L-9.5 5.5L-9.5 -5.5Z" fill="none" stroke="#890000" stroke-width="2"></path></g><g transform="translate(733 309)"><path d="M0 -11L9.5 -5.5L9.5 5.5L0 11L-9.5 5.5L-9.5 -5.5Z" fill="none" stroke="#890000" stroke-width="2"></path></g><g transform="translate(728 177)"><path d="M0 -11L9.5 -5.5L9.5 5.5L0 11L-9.5 5.5L-9.5 -5.5Z" fill="none" stroke="#890000" stroke-width="2"></path></g><g transform="translate(794 521)"><path d="M0 -8L6.9 -4L6.9 4L0 8L-6.9 4L-6.9 -4Z" fill="none" stroke="#890000" stroke-width="2"></path></g><g transform="translate(862 349)"><path d="M0 -8L6.9 -4L6.9 4L0 8L-6.9 4L-6.9 -4Z" fill="none" stroke="#890000" stroke-width="2"></path></g><g transform="translate(951 256)"><path d="M0 -10L8.7 -5L8.7 5L0 10L-8.7 5L-8.7 -5Z" fill="none" stroke="#890000" stroke-width="2"></path></g><g transform="translate(203 363)"><path d="M0 -10L8.7 -5L8.7 5L0 10L-8.7 5L-8.7 -5Z" fill="none" stroke="#890000" stroke-width="2"></path></g><g transform="translate(114 57)"><path d="M0 -10L8.7 -5L8.7 5L0 10L-8.7 5L-8.7 -5Z" fill="none" stroke="#890000" stroke-width="2"></path></g><g transform="translate(121 353)"><path d="M0 -8L6.9 -4L6.9 4L0 8L-6.9 4L-6.9 -4Z" fill="none" stroke="#890000" stroke-width="2"></path></g><g transform="translate(435 223)"><path d="M0 -9L7.8 -4.5L7.8 4.5L0 9L-7.8 4.5L-7.8 -4.5Z" fill="none" stroke="#890000" stroke-width="2"></path></g><g transform="translate(45 138)"><path d="M0 -9L7.8 -4.5L7.8 4.5L0 9L-7.8 4.5L-7.8 -4.5Z" fill="none" stroke="#890000" stroke-width="2"></path></g><g transform="translate(198 34)"><path d="M0 -10L8.7 -5L8.7 5L0 10L-8.7 5L-8.7 -5Z" fill="none" stroke="#890000" stroke-width="2"></path></g><g transform="translate(428 66)"><path d="M0 -9L7.8 -4.5L7.8 4.5L0 9L-7.8 4.5L-7.8 -4.5Z" fill="none" stroke="#890000" stroke-width="2"></path></g><g transform="translate(618 510)"><path d="M0 -11L9.5 -5.5L9.5 5.5L0 11L-9.5 5.5L-9.5 -5.5Z" fill="none" stroke="#890000" stroke-width="2"></path></g><g transform="translate(76 476)"><path d="M0 -11L9.5 -5.5L9.5 5.5L0 11L-9.5 5.5L-9.5 -5.5Z" fill="none" stroke="#890000" stroke-width="2"></path></g><g transform="translate(832 310)"><path d="M0 -11L9.5 -5.5L9.5 5.5L0 11L-9.5 5.5L-9.5 -5.5Z" fill="none" stroke="#890000" stroke-width="2"></path></g><g transform="translate(137 475)"><path d="M0 -11L9.5 -5.5L9.5 5.5L0 11L-9.5 5.5L-9.5 -5.5Z" fill="none" stroke="#890000" stroke-width="2"></path></g><g transform="translate(903 109)"><path d="M0 -8L6.9 -4L6.9 4L0 8L-6.9 4L-6.9 -4Z" fill="none" stroke="#890000" stroke-width="2"></path></g><g transform="translate(637 446)"><path d="M0 -10L8.7 -5L8.7 5L0 10L-8.7 5L-8.7 -5Z" fill="none" stroke="#890000" stroke-width="2"></path></g><g transform="translate(577 401)"><path d="M0 -11L9.5 -5.5L9.5 5.5L0 11L-9.5 5.5L-9.5 -5.5Z" fill="none" stroke="#890000" stroke-width="2"></path></g><g transform="translate(355 506)"><path d="M0 -10L8.7 -5L8.7 5L0 10L-8.7 5L-8.7 -5Z" fill="none" stroke="#890000" stroke-width="2"></path></g><g transform="translate(37 335)"><path d="M0 -11L9.5 -5.5L9.5 5.5L0 11L-9.5 5.5L-9.5 -5.5Z" fill="none" stroke="#890000" stroke-width="2"></path></g><g transform="translate(700 93)"><path d="M0 -10L8.7 -5L8.7 5L0 10L-8.7 5L-8.7 -5Z" fill="none" stroke="#890000" stroke-width="2"></path></g><g transform="translate(67 290)"><path d="M0 -8L6.9 -4L6.9 4L0 8L-6.9 4L-6.9 -4Z" fill="none" stroke="#890000" stroke-width="2"></path></g><g transform="translate(520 354)"><path d="M0 -10L8.7 -5L8.7 5L0 10L-8.7 5L-8.7 -5Z" fill="none" stroke="#890000" stroke-width="2"></path></g><g transform="translate(201 243)"><path d="M0 -9L7.8 -4.5L7.8 4.5L0 9L-7.8 4.5L-7.8 -4.5Z" fill="none" stroke="#890000" stroke-width="2"></path></g><g transform="translate(440 324)"><path d="M0 -9L7.8 -4.5L7.8 4.5L0 9L-7.8 4.5L-7.8 -4.5Z" fill="none" stroke="#890000" stroke-width="2"></path></g><g transform="translate(67 183)"><path d="M0 -10L8.7 -5L8.7 5L0 10L-8.7 5L-8.7 -5Z" fill="none" stroke="#890000" stroke-width="2"></path></g><g transform="translate(412 186)"><path d="M0 -9L7.8 -4.5L7.8 4.5L0 9L-7.8 4.5L-7.8 -4.5Z" fill="none" stroke="#890000" stroke-width="2"></path></g><g transform="translate(453 510)"><path d="M0 -11L9.5 -5.5L9.5 5.5L0 11L-9.5 5.5L-9.5 -5.5Z" fill="none" stroke="#890000" stroke-width="2"></path></g><g transform="translate(635 489)"><path d="M0 -10L8.7 -5L8.7 5L0 10L-8.7 5L-8.7 -5Z" fill="none" stroke="#890000" stroke-width="2"></path></g><g transform="translate(373 134)"><path d="M0 -9L7.8 -4.5L7.8 4.5L0 9L-7.8 4.5L-7.8 -4.5Z" fill="none" stroke="#890000" stroke-width="2"></path></g><g transform="translate(170 338)"><path d="M0 -8L6.9 -4L6.9 4L0 8L-6.9 4L-6.9 -4Z" fill="none" stroke="#890000" stroke-width="2"></path></g><g transform="translate(144 165)"><path d="M0 -10L8.7 -5L8.7 5L0 10L-8.7 5L-8.7 -5Z" fill="none" stroke="#890000" stroke-width="2"></path></g><g transform="translate(130 408)"><path d="M0 -11L9.5 -5.5L9.5 5.5L0 11L-9.5 5.5L-9.5 -5.5Z" fill="none" stroke="#890000" stroke-width="2"></path></g><g transform="translate(528 240)"><path d="M0 -11L9.5 -5.5L9.5 5.5L0 11L-9.5 5.5L-9.5 -5.5Z" fill="none" stroke="#890000" stroke-width="2"></path></g><g transform="translate(911 266)"><path d="M0 -9L7.8 -4.5L7.8 4.5L0 9L-7.8 4.5L-7.8 -4.5Z" fill="none" stroke="#890000" stroke-width="2"></path></g><g transform="translate(512 29)"><path d="M0 -10L8.7 -5L8.7 5L0 10L-8.7 5L-8.7 -5Z" fill="none" stroke="#890000" stroke-width="2"></path></g><g transform="translate(869 88)"><path d="M0 -9L7.8 -4.5L7.8 4.5L0 9L-7.8 4.5L-7.8 -4.5Z" fill="none" stroke="#890000" stroke-width="2"></path></g><g transform="translate(514 114)"><path d="M0 -9L7.8 -4.5L7.8 4.5L0 9L-7.8 4.5L-7.8 -4.5Z" fill="none" stroke="#890000" stroke-width="2"></path></g><g transform="translate(777 268)"><path d="M0 -11L9.5 -5.5L9.5 5.5L0 11L-9.5 5.5L-9.5 -5.5Z" fill="none" stroke="#890000" stroke-width="2"></path></g><g transform="translate(785 455)"><path d="M0 -11L9.5 -5.5L9.5 5.5L0 11L-9.5 5.5L-9.5 -5.5Z" fill="none" stroke="#890000" stroke-width="2"></path></g><g transform="translate(599 263)"><path d="M0 -8L6.9 -4L6.9 4L0 8L-6.9 4L-6.9 -4Z" fill="none" stroke="#890000" stroke-width="2"></path></g><g transform="translate(901 139)"><path d="M0 -11L9.5 -5.5L9.5 5.5L0 11L-9.5 5.5L-9.5 -5.5Z" fill="none" stroke="#890000" stroke-width="2"></path></g><g transform="translate(75 97)"><path d="M0 -9L7.8 -4.5L7.8 4.5L0 9L-7.8 4.5L-7.8 -4.5Z" fill="none" stroke="#890000" stroke-width="2"></path></g><g transform="translate(307 194)"><path d="M0 -9L7.8 -4.5L7.8 4.5L0 9L-7.8 4.5L-7.8 -4.5Z" fill="none" stroke="#890000" stroke-width="2"></path></g><g transform="translate(497 175)"><path d="M0 -9L7.8 -4.5L7.8 4.5L0 9L-7.8 4.5L-7.8 -4.5Z" fill="none" stroke="#890000" stroke-width="2"></path></g><g transform="translate(348 392)"><path d="M0 -11L9.5 -5.5L9.5 5.5L0 11L-9.5 5.5L-9.5 -5.5Z" fill="none" stroke="#890000" stroke-width="2"></path></g><g transform="translate(388 454)"><path d="M0 -11L9.5 -5.5L9.5 5.5L0 11L-9.5 5.5L-9.5 -5.5Z" fill="none" stroke="#890000" stroke-width="2"></path></g><g transform="translate(407 286)"><path d="M0 -8L6.9 -4L6.9 4L0 8L-6.9 4L-6.9 -4Z" fill="none" stroke="#890000" stroke-width="2"></path></g><g transform="translate(355 230)"><path d="M0 -8L6.9 -4L6.9 4L0 8L-6.9 4L-6.9 -4Z" fill="none" stroke="#890000" stroke-width="2"></path></g><g transform="translate(252 409)"><path d="M0 -9L7.8 -4.5L7.8 4.5L0 9L-7.8 4.5L-7.8 -4.5Z" fill="none" stroke="#890000" stroke-width="2"></path></g><g transform="translate(589 302)"><path d="M0 -9L7.8 -4.5L7.8 4.5L0 9L-7.8 4.5L-7.8 -4.5Z" fill="none" stroke="#890000" stroke-width="2"></path></g><g transform="translate(105 374)"><path d="M0 -11L9.5 -5.5L9.5 5.5L0 11L-9.5 5.5L-9.5 -5.5Z" fill="none" stroke="#890000" stroke-width="2"></path></g><g transform="translate(939 222)"><path d="M0 -9L7.8 -4.5L7.8 4.5L0 9L-7.8 4.5L-7.8 -4.5Z" fill="none" stroke="#890000" stroke-width="2"></path></g><g transform="translate(145 36)"><path d="M0 -9L7.8 -4.5L7.8 4.5L0 9L-7.8 4.5L-7.8 -4.5Z" fill="none" stroke="#890000" stroke-width="2"></path></g><g transform="translate(895 286)"><path d="M0 -10L8.7 -5L8.7 5L0 10L-8.7 5L-8.7 -5Z" fill="none" stroke="#890000" stroke-width="2"></path></g><g transform="translate(495 382)"><path d="M0 -10L8.7 -5L8.7 5L0 10L-8.7 5L-8.7 -5Z" fill="none" stroke="#890000" stroke-width="2"></path></g><g transform="translate(183 149)"><path d="M0 -10L8.7 -5L8.7 5L0 10L-8.7 5L-8.7 -5Z" fill="none" stroke="#890000" stroke-width="2"></path></g><g transform="translate(309 437)"><path d="M0 -9L7.8 -4.5L7.8 4.5L0 9L-7.8 4.5L-7.8 -4.5Z" fill="none" stroke="#890000" stroke-width="2"></path></g><g transform="translate(129 510)"><path d="M0 -9L7.8 -4.5L7.8 4.5L0 9L-7.8 4.5L-7.8 -4.5Z" fill="none" stroke="#890000" stroke-width="2"></path></g><g transform="translate(13 198)"><path d="M0 -8L6.9 -4L6.9 4L0 8L-6.9 4L-6.9 -4Z" fill="none" stroke="#890000" stroke-width="2"></path></g><g transform="translate(209 120)"><path d="M0 -9L7.8 -4.5L7.8 4.5L0 9L-7.8 4.5L-7.8 -4.5Z" fill="none" stroke="#890000" stroke-width="2"></path></g><g transform="translate(627 205)"><path d="M0 -10L8.7 -5L8.7 5L0 10L-8.7 5L-8.7 -5Z" fill="none" stroke="#890000" stroke-width="2"></path></g><g transform="translate(257 529)"><path d="M0 -8L6.9 -4L6.9 4L0 8L-6.9 4L-6.9 -4Z" fill="none" stroke="#890000" stroke-width="2"></path></g><g transform="translate(286 300)"><path d="M0 -8L6.9 -4L6.9 4L0 8L-6.9 4L-6.9 -4Z" fill="none" stroke="#890000" stroke-width="2"></path></g><g transform="translate(345 444)"><path d="M0 -9L7.8 -4.5L7.8 4.5L0 9L-7.8 4.5L-7.8 -4.5Z" fill="none" stroke="#890000" stroke-width="2"></path></g><g transform="translate(463 13)"><path d="M0 -10L8.7 -5L8.7 5L0 10L-8.7 5L-8.7 -5Z" fill="none" stroke="#890000" stroke-width="2"></path></g><g transform="translate(707 421)"><path d="M0 -10L8.7 -5L8.7 5L0 10L-8.7 5L-8.7 -5Z" stroke="#890000" fill="none" stroke-width="2"></path></g><g transform="translate(585 430)"><path d="M0 -8L6.9 -4L6.9 4L0 8L-6.9 4L-6.9 -4Z" stroke="#890000" fill="none" stroke-width="2"></path></g><g transform="translate(507 469)"><path d="M0 -8L6.9 -4L6.9 4L0 8L-6.9 4L-6.9 -4Z" stroke="#890000" fill="none" stroke-width="2"></path></g><g transform="translate(386 523)"><path d="M0 -8L6.9 -4L6.9 4L0 8L-6.9 4L-6.9 -4Z" stroke="#890000" fill="none" stroke-width="2"></path></g><g transform="translate(219 438)"><path d="M0 -11L9.5 -5.5L9.5 5.5L0 11L-9.5 5.5L-9.5 -5.5Z" stroke="#890000" fill="none" stroke-width="2"></path></g><g transform="translate(400 127)"><path d="M0 -11L9.5 -5.5L9.5 5.5L0 11L-9.5 5.5L-9.5 -5.5Z" stroke="#890000" fill="none" stroke-width="2"></path></g><g transform="translate(98 16)"><path d="M0 -8L6.9 -4L6.9 4L0 8L-6.9 4L-6.9 -4Z" stroke="#890000" fill="none" stroke-width="2"></path></g><g transform="translate(876 58)"><path d="M0 -9L7.8 -4.5L7.8 4.5L0 9L-7.8 4.5L-7.8 -4.5Z" stroke="#890000" fill="none" stroke-width="2"></path></g><g transform="translate(272 8)"><path d="M0 -10L8.7 -5L8.7 5L0 10L-8.7 5L-8.7 -5Z" stroke="#890000" fill="none" stroke-width="2"></path></g><g transform="translate(248 20)"><path d="M0 -10L8.7 -5L8.7 5L0 10L-8.7 5L-8.7 -5Z" stroke="#890000" fill="none" stroke-width="2"></path></g><g transform="translate(334 479)"><path d="M0 -11L9.5 -5.5L9.5 5.5L0 11L-9.5 5.5L-9.5 -5.5Z" stroke="#890000" fill="none" stroke-width="2"></path></g><g transform="translate(557 207)"><path d="M0 -11L9.5 -5.5L9.5 5.5L0 11L-9.5 5.5L-9.5 -5.5Z" stroke="#890000" fill="none" stroke-width="2"></path></g><g transform="translate(198 405)"><path d="M0 -11L9.5 -5.5L9.5 5.5L0 11L-9.5 5.5L-9.5 -5.5Z" stroke="#890000" fill="none" stroke-width="2"></path></g><g transform="translate(229 534)"><path d="M0 -10L8.7 -5L8.7 5L0 10L-8.7 5L-8.7 -5Z" stroke="#890000" fill="none" stroke-width="2"></path></g><g transform="translate(22 4)"><path d="M0 -8L6.9 -4L6.9 4L0 8L-6.9 4L-6.9 -4Z" stroke="#890000" fill="none" stroke-width="2"></path></g><g transform="translate(856 232)"><path d="M0 -11L9.5 -5.5L9.5 5.5L0 11L-9.5 5.5L-9.5 -5.5Z" stroke="#890000" fill="none" stroke-width="2"></path></g><g transform="translate(301 11)"><path d="M0 -9L7.8 -4.5L7.8 4.5L0 9L-7.8 4.5L-7.8 -4.5Z" stroke="#890000" fill="none" stroke-width="2"></path></g><g transform="translate(863 389)"><path d="M0 -9L7.8 -4.5L7.8 4.5L0 9L-7.8 4.5L-7.8 -4.5Z" stroke="#890000" fill="none" stroke-width="2"></path></g><g transform="translate(677 4)"><path d="M0 -10L8.7 -5L8.7 5L0 10L-8.7 5L-8.7 -5Z" stroke="#890000" fill="none" stroke-width="2"></path></g><g transform="translate(542 389)"><path d="M0 -9L7.8 -4.5L7.8 4.5L0 9L-7.8 4.5L-7.8 -4.5Z" stroke="#890000" fill="none" stroke-width="2"></path></g><g transform="translate(758 313)"><path d="M0 -8L6.9 -4L6.9 4L0 8L-6.9 4L-6.9 -4Z" stroke="#890000" fill="none" stroke-width="2"></path></g><g transform="translate(636 122)"><path d="M0 -8L6.9 -4L6.9 4L0 8L-6.9 4L-6.9 -4Z" stroke="#890000" fill="none" stroke-width="2"></path></g><g transform="translate(723 16)"><path d="M0 -10L8.7 -5L8.7 5L0 10L-8.7 5L-8.7 -5Z" stroke="#890000" fill="none" stroke-width="2"></path></g><g transform="translate(942 430)"><path d="M0 -10L8.7 -5L8.7 5L0 10L-8.7 5L-8.7 -5Z" stroke="#890000" fill="none" stroke-width="2"></path></g><g transform="translate(588 365)"><path d="M0 -10L8.7 -5L8.7 5L0 10L-8.7 5L-8.7 -5Z" stroke="#890000" fill="none" stroke-width="2"></path></g><g transform="translate(761 58)"><path d="M0 -8L6.9 -4L6.9 4L0 8L-6.9 4L-6.9 -4Z" stroke="#890000" fill="none" stroke-width="2"></path></g><g transform="translate(611 417)"><path d="M0 -11L9.5 -5.5L9.5 5.5L0 11L-9.5 5.5L-9.5 -5.5Z" stroke="#890000" fill="none" stroke-width="2"></path></g><g transform="translate(908 525)"><path d="M0 -8L6.9 -4L6.9 4L0 8L-6.9 4L-6.9 -4Z" stroke="#890000" fill="none" stroke-width="2"></path></g><g transform="translate(158 88)"><path d="M0 -8L6.9 -4L6.9 4L0 8L-6.9 4L-6.9 -4Z" stroke="#890000" fill="none" stroke-width="2"></path></g><g transform="translate(358 173)"><path d="M0 -9L7.8 -4.5L7.8 4.5L0 9L-7.8 4.5L-7.8 -4.5Z" stroke="#890000" fill="none" stroke-width="2"></path></g><g transform="translate(110 155)"><path d="M0 -8L6.9 -4L6.9 4L0 8L-6.9 4L-6.9 -4Z" stroke="#890000" fill="none" stroke-width="2"></path></g><g transform="translate(226 227)"><path d="M0 -11L9.5 -5.5L9.5 5.5L0 11L-9.5 5.5L-9.5 -5.5Z" stroke="#890000" fill="none" stroke-width="2"></path></g><g transform="translate(832 270)"><path d="M0 -9L7.8 -4.5L7.8 4.5L0 9L-7.8 4.5L-7.8 -4.5Z" stroke="#890000" fill="none" stroke-width="2"></path></g><g transform="translate(436 13)"><path d="M0 -9L7.8 -4.5L7.8 4.5L0 9L-7.8 4.5L-7.8 -4.5Z" stroke="#890000" fill="none" stroke-width="2"></path></g><g transform="translate(871 311)"><path d="M0 -9L7.8 -4.5L7.8 4.5L0 9L-7.8 4.5L-7.8 -4.5Z" stroke="#890000" fill="none" stroke-width="2"></path></g><g transform="translate(11 428)"><path d="M0 -9L7.8 -4.5L7.8 4.5L0 9L-7.8 4.5L-7.8 -4.5Z" stroke="#890000" fill="none" stroke-width="2"></path></g><g transform="translate(565 32)"><path d="M0 -10L8.7 -5L8.7 5L0 10L-8.7 5L-8.7 -5Z" stroke="#890000" fill="none" stroke-width="2"></path></g><g transform="translate(638 71)"><path d="M0 -9L7.8 -4.5L7.8 4.5L0 9L-7.8 4.5L-7.8 -4.5Z" stroke="#890000" fill="none" stroke-width="2"></path></g><g transform="translate(398 401)"><path d="M0 -9L7.8 -4.5L7.8 4.5L0 9L-7.8 4.5L-7.8 -4.5Z" stroke="#890000" fill="none" stroke-width="2"></path></g><g transform="translate(17 41)"><path d="M0 -10L8.7 -5L8.7 5L0 10L-8.7 5L-8.7 -5Z" stroke="#890000" fill="none" stroke-width="2"></path></g><g transform="translate(256 256)"><path d="M0 -11L9.5 -5.5L9.5 5.5L0 11L-9.5 5.5L-9.5 -5.5Z" stroke="#890000" fill="none" stroke-width="2"></path></g><g transform="translate(470 167)"><path d="M0 -9L7.8 -4.5L7.8 4.5L0 9L-7.8 4.5L-7.8 -4.5Z" stroke="#890000" fill="none" stroke-width="2"></path></g><g transform="translate(47 229)"><path d="M0 -8L6.9 -4L6.9 4L0 8L-6.9 4L-6.9 -4Z" stroke="#890000" fill="none" stroke-width="2"></path></g><g transform="translate(655 377)"><path d="M0 -9L7.8 -4.5L7.8 4.5L0 9L-7.8 4.5L-7.8 -4.5Z" stroke="#890000" fill="none" stroke-width="2"></path></g><g transform="translate(316 280)"><path d="M0 -11L9.5 -5.5L9.5 5.5L0 11L-9.5 5.5L-9.5 -5.5Z" stroke="#890000" fill="none" stroke-width="2"></path></g><g transform="translate(466 330)"><path d="M0 -9L7.8 -4.5L7.8 4.5L0 9L-7.8 4.5L-7.8 -4.5Z" stroke="#890000" fill="none" stroke-width="2"></path></g><g transform="translate(105 422)"><path d="M0 -10L8.7 -5L8.7 5L0 10L-8.7 5L-8.7 -5Z" stroke="#890000" fill="none" stroke-width="2"></path></g><g transform="translate(669 451)"><path d="M0 -9L7.8 -4.5L7.8 4.5L0 9L-7.8 4.5L-7.8 -4.5Z" stroke="#890000" fill="none" stroke-width="2"></path></g><g transform="translate(477 484)"><path d="M0 -8L6.9 -4L6.9 4L0 8L-6.9 4L-6.9 -4Z" stroke="#890000" fill="none" stroke-width="2"></path></g><g transform="translate(385 271)"><path d="M0 -8L6.9 -4L6.9 4L0 8L-6.9 4L-6.9 -4Z" stroke="#890000" fill="none" stroke-width="2"></path></g><g transform="translate(259 375)"><path d="M0 -8L6.9 -4L6.9 4L0 8L-6.9 4L-6.9 -4Z" stroke="#890000" fill="none" stroke-width="2"></path></g><g transform="translate(331 211)"><path d="M0 -9L7.8 -4.5L7.8 4.5L0 9L-7.8 4.5L-7.8 -4.5Z" stroke="#890000" fill="none" stroke-width="2"></path></g><g transform="translate(388 426)"><path d="M0 -10L8.7 -5L8.7 5L0 10L-8.7 5L-8.7 -5Z" stroke="#890000" fill="none" stroke-width="2"></path></g><g transform="translate(374 9)"><path d="M0 -9L7.8 -4.5L7.8 4.5L0 9L-7.8 4.5L-7.8 -4.5Z" stroke="#890000" fill="none" stroke-width="2"></path></g><g transform="translate(60 253)"><path d="M0 -9L7.8 -4.5L7.8 4.5L0 9L-7.8 4.5L-7.8 -4.5Z" stroke="#890000" fill="none" stroke-width="2"></path></g><g transform="translate(262 125)"><path d="M0 -8L6.9 -4L6.9 4L0 8L-6.9 4L-6.9 -4Z" stroke="#890000" fill="none" stroke-width="2"></path></g><g transform="translate(533 475)"><path d="M0 -9L7.8 -4.5L7.8 4.5L0 9L-7.8 4.5L-7.8 -4.5Z" stroke="#890000" fill="none" stroke-width="2"></path></g><g transform="translate(939 144)"><path d="M0 -10L8.7 -5L8.7 5L0 10L-8.7 5L-8.7 -5Z" stroke="#890000" fill="none" stroke-width="2"></path></g><g transform="translate(855 189)"><path d="M0 -10L8.7 -5L8.7 5L0 10L-8.7 5L-8.7 -5Z" stroke="#890000" fill="none" stroke-width="2"></path></g><g transform="translate(319 379)"><path d="M0 -10L8.7 -5L8.7 5L0 10L-8.7 5L-8.7 -5Z" stroke="#890000" fill="none" stroke-width="2"></path></g><g transform="translate(826 11)"><path d="M0 -11L9.5 -5.5L9.5 5.5L0 11L-9.5 5.5L-9.5 -5.5Z" stroke="#890000" fill="none" stroke-width="2"></path></g><g transform="translate(64 316)"><path d="M0 -8L6.9 -4L6.9 4L0 8L-6.9 4L-6.9 -4Z" stroke="#890000" fill="none" stroke-width="2"></path></g><g transform="translate(912 364)"><path d="M0 -8L6.9 -4L6.9 4L0 8L-6.9 4L-6.9 -4Z" stroke="#890000" fill="none" stroke-width="2"></path></g><g transform="translate(732 117)"><path d="M0 -8L6.9 -4L6.9 4L0 8L-6.9 4L-6.9 -4Z" stroke="#890000" fill="none" stroke-width="2"></path></g><g transform="translate(19 88)"><path d="M0 -9L7.8 -4.5L7.8 4.5L0 9L-7.8 4.5L-7.8 -4.5Z" stroke="#890000" fill="none" stroke-width="2"></path></g><g transform="translate(419 362)"><path d="M0 -11L9.5 -5.5L9.5 5.5L0 11L-9.5 5.5L-9.5 -5.5Z" stroke="#890000" fill="none" stroke-width="2"></path></g><g transform="translate(584 189)"><path d="M0 -9L7.8 -4.5L7.8 4.5L0 9L-7.8 4.5L-7.8 -4.5Z" stroke="#890000" fill="none" stroke-width="2"></path></g><g transform="translate(447 43)"><path d="M0 -10L8.7 -5L8.7 5L0 10L-8.7 5L-8.7 -5Z" stroke="#890000" fill="none" stroke-width="2"></path></g><g transform="translate(364 89)"><path d="M0 -10L8.7 -5L8.7 5L0 10L-8.7 5L-8.7 -5Z" stroke="#890000" fill="none" stroke-width="2"></path></g><g transform="translate(886 505)"><path d="M0 -8L6.9 -4L6.9 4L0 8L-6.9 4L-6.9 -4Z" stroke="#890000" fill="none" stroke-width="2"></path></g><g transform="translate(247 299)"><path d="M0 -9L7.8 -4.5L7.8 4.5L0 9L-7.8 4.5L-7.8 -4.5Z" stroke="#890000" fill="none" stroke-width="2"></path></g><g transform="translate(744 396)"><path d="M0 -8L6.9 -4L6.9 4L0 8L-6.9 4L-6.9 -4Z" stroke="#890000" fill="none" stroke-width="2"></path></g><g transform="translate(446 184)"><path d="M0 -11L9.5 -5.5L9.5 5.5L0 11L-9.5 5.5L-9.5 -5.5Z" stroke="#890000" fill="none" stroke-width="2"></path></g><g transform="translate(720 347)"><path d="M0 -10L8.7 -5L8.7 5L0 10L-8.7 5L-8.7 -5Z" stroke="#890000" fill="none" stroke-width="2"></path></g><g transform="translate(208 306)"><path d="M0 -9L7.8 -4.5L7.8 4.5L0 9L-7.8 4.5L-7.8 -4.5Z" stroke="#890000" fill="none" stroke-width="2"></path></g><g transform="translate(134 249)"><path d="M0 -9L7.8 -4.5L7.8 4.5L0 9L-7.8 4.5L-7.8 -4.5Z" stroke="#890000" fill="none" stroke-width="2"></path></g><g transform="translate(242 329)"><path d="M0 -11L9.5 -5.5L9.5 5.5L0 11L-9.5 5.5L-9.5 -5.5Z" stroke="#890000" fill="none" stroke-width="2"></path></g><g transform="translate(632 269)"><path d="M0 -9L7.8 -4.5L7.8 4.5L0 9L-7.8 4.5L-7.8 -4.5Z" stroke="#890000" fill="none" stroke-width="2"></path></g><g transform="translate(502 256)"><path d="M0 -10L8.7 -5L8.7 5L0 10L-8.7 5L-8.7 -5Z" stroke="#890000" fill="none" stroke-width="2"></path></g><g transform="translate(226 485)"><path d="M0 -8L6.9 -4L6.9 4L0 8L-6.9 4L-6.9 -4Z" stroke="#890000" fill="none" stroke-width="2"></path></g><g transform="translate(552 151)"><path d="M0 -9L7.8 -4.5L7.8 4.5L0 9L-7.8 4.5L-7.8 -4.5Z" stroke="#890000" fill="none" stroke-width="2"></path></g><g transform="translate(656 146)"><path d="M0 -9L7.8 -4.5L7.8 4.5L0 9L-7.8 4.5L-7.8 -4.5Z" stroke="#890000" fill="none" stroke-width="2"></path></g><g transform="translate(163 466)"><path d="M0 -8L6.9 -4L6.9 4L0 8L-6.9 4L-6.9 -4Z" stroke="#890000" fill="none" stroke-width="2"></path></g><g transform="translate(742 262)"><path d="M0 -11L9.5 -5.5L9.5 5.5L0 11L-9.5 5.5L-9.5 -5.5Z" stroke="#890000" fill="none" stroke-width="2"></path></g><g transform="translate(785 5)"><path d="M0 -10L8.7 -5L8.7 5L0 10L-8.7 5L-8.7 -5Z" stroke="#890000" fill="none" stroke-width="2"></path></g><g transform="translate(389 174)"><path d="M0 -8L6.9 -4L6.9 4L0 8L-6.9 4L-6.9 -4Z" stroke="#890000" fill="none" stroke-width="2"></path></g><g transform="translate(948 78)"><path d="M0 -8L6.9 -4L6.9 4L0 8L-6.9 4L-6.9 -4Z" stroke="#890000" fill="none" stroke-width="2"></path></g><g transform="translate(3 338)"><path d="M0 -11L9.5 -5.5L9.5 5.5L0 11L-9.5 5.5L-9.5 -5.5Z" stroke="#890000" fill="none" stroke-width="2"></path></g><g transform="translate(380 240)"><path d="M0 -11L9.5 -5.5L9.5 5.5L0 11L-9.5 5.5L-9.5 -5.5Z" stroke="#890000" fill="none" stroke-width="2"></path></g><g transform="translate(8 231)"><path d="M0 -11L9.5 -5.5L9.5 5.5L0 11L-9.5 5.5L-9.5 -5.5Z" stroke="#890000" fill="none" stroke-width="2"></path></g><g transform="translate(701 283)"><path d="M0 -10L8.7 -5L8.7 5L0 10L-8.7 5L-8.7 -5Z" stroke="#890000" fill="none" stroke-width="2"></path></g><g transform="translate(497 79)"><path d="M0 -10L8.7 -5L8.7 5L0 10L-8.7 5L-8.7 -5Z" stroke="#890000" fill="none" stroke-width="2"></path></g><g transform="translate(179 495)"><path d="M0 -8L6.9 -4L6.9 4L0 8L-6.9 4L-6.9 -4Z" stroke="#890000" fill="none" stroke-width="2"></path></g><g transform="translate(571 131)"><path d="M0 -8L6.9 -4L6.9 4L0 8L-6.9 4L-6.9 -4Z" stroke="#890000" fill="none" stroke-width="2"></path></g><g transform="translate(493 430)"><path d="M0 -10L8.7 -5L8.7 5L0 10L-8.7 5L-8.7 -5Z" stroke="#890000" fill="none" stroke-width="2"></path></g><g transform="translate(940 394)"><path d="M0 -11L9.5 -5.5L9.5 5.5L0 11L-9.5 5.5L-9.5 -5.5Z" stroke="#890000" fill="none" stroke-width="2"></path></g><g transform="translate(69 154)"><path d="M0 -11L9.5 -5.5L9.5 5.5L0 11L-9.5 5.5L-9.5 -5.5Z" stroke="#890000" fill="none" stroke-width="2"></path></g><g transform="translate(740 517)"><path d="M0 -11L9.5 -5.5L9.5 5.5L0 11L-9.5 5.5L-9.5 -5.5Z" stroke="#890000" fill="none" stroke-width="2"></path></g><g transform="translate(486 531)"><path d="M0 -10L8.7 -5L8.7 5L0 10L-8.7 5L-8.7 -5Z" stroke="#890000" fill="none" stroke-width="2"></path></g><g transform="translate(606 536)"><path d="M0 -10L8.7 -5L8.7 5L0 10L-8.7 5L-8.7 -5Z" stroke="#890000" fill="none" stroke-width="2"></path></g><g transform="translate(871 164)"><path d="M0 -9L7.8 -4.5L7.8 4.5L0 9L-7.8 4.5L-7.8 -4.5Z" stroke="#890000" fill="none" stroke-width="2"></path></g><g transform="translate(140 7)"><path d="M0 -10L8.7 -5L8.7 5L0 10L-8.7 5L-8.7 -5Z" stroke="#890000" fill="none" stroke-width="2"></path></g><g transform="translate(550 446)"><path d="M0 -9L7.8 -4.5L7.8 4.5L0 9L-7.8 4.5L-7.8 -4.5Z" stroke="#890000" fill="none" stroke-width="2"></path></g><g transform="translate(215 265)"><path d="M0 -8L6.9 -4L6.9 4L0 8L-6.9 4L-6.9 -4Z" stroke="#890000" fill="none" stroke-width="2"></path></g><g transform="translate(5 366)"><path d="M0 -11L9.5 -5.5L9.5 5.5L0 11L-9.5 5.5L-9.5 -5.5Z" stroke="#890000" fill="none" stroke-width="2"></path></g><g transform="translate(202 512)"><path d="M0 -11L9.5 -5.5L9.5 5.5L0 11L-9.5 5.5L-9.5 -5.5Z" stroke="#890000" fill="none" stroke-width="2"></path></g><g transform="translate(515 445)"><path d="M0 -10L8.7 -5L8.7 5L0 10L-8.7 5L-8.7 -5Z" stroke="#890000" fill="none" stroke-width="2"></path></g><g transform="translate(382 487)"><path d="M0 -11L9.5 -5.5L9.5 5.5L0 11L-9.5 5.5L-9.5 -5.5Z" stroke="#890000" fill="none" stroke-width="2"></path></g><g transform="translate(942 359)"><path d="M0 -9L7.8 -4.5L7.8 4.5L0 9L-7.8 4.5L-7.8 -4.5Z" stroke="#890000" fill="none" stroke-width="2"></path></g><g transform="translate(373 201)"><path d="M0 -10L8.7 -5L8.7 5L0 10L-8.7 5L-8.7 -5Z" stroke="#890000" fill="none" stroke-width="2"></path></g><g transform="translate(482 358)"><path d="M0 -11L9.5 -5.5L9.5 5.5L0 11L-9.5 5.5L-9.5 -5.5Z" stroke="#890000" fill="none" stroke-width="2"></path></g><g transform="translate(855 133)"><path d="M0 -9L7.8 -4.5L7.8 4.5L0 9L-7.8 4.5L-7.8 -4.5Z" stroke="#890000" fill="none" stroke-width="2"></path></g><g transform="translate(270 441)"><path d="M0 -10L8.7 -5L8.7 5L0 10L-8.7 5L-8.7 -5Z" stroke="#890000" fill="none" stroke-width="2"></path></g><g transform="translate(781 163)"><path d="M0 -11L9.5 -5.5L9.5 5.5L0 11L-9.5 5.5L-9.5 -5.5Z" stroke="#890000" fill="none" stroke-width="2"></path></g><g transform="translate(700 52)"><path d="M0 -11L9.5 -5.5L9.5 5.5L0 11L-9.5 5.5L-9.5 -5.5Z" stroke="#890000" fill="none" stroke-width="2"></path></g><g transform="translate(714 387)"><path d="M0 -11L9.5 -5.5L9.5 5.5L0 11L-9.5 5.5L-9.5 -5.5Z" stroke="#890000" fill="none" stroke-width="2"></path></g><g transform="translate(924 25)"><path d="M0 -11L9.5 -5.5L9.5 5.5L0 11L-9.5 5.5L-9.5 -5.5Z" stroke="#890000" fill="none" stroke-width="2"></path></g><g transform="translate(567 267)"><path d="M0 -8L6.9 -4L6.9 4L0 8L-6.9 4L-6.9 -4Z" stroke="#890000" fill="none" stroke-width="2"></path></g><g transform="translate(114 229)"><path d="M0 -10L8.7 -5L8.7 5L0 10L-8.7 5L-8.7 -5Z" stroke="#890000" fill="none" stroke-width="2"></path></g><g transform="translate(564 376)"><path d="M0 -9L7.8 -4.5L7.8 4.5L0 9L-7.8 4.5L-7.8 -4.5Z" stroke="#890000" fill="none" stroke-width="2"></path></g><g transform="translate(598 216)"><path d="M0 -9L7.8 -4.5L7.8 4.5L0 9L-7.8 4.5L-7.8 -4.5Z" stroke="#890000" fill="none" stroke-width="2"></path></g><g transform="translate(761 471)"><path d="M0 -8L6.9 -4L6.9 4L0 8L-6.9 4L-6.9 -4Z" stroke="#890000" fill="none" stroke-width="2"></path></g><g transform="translate(953 467)"><path d="M0 -11L9.5 -5.5L9.5 5.5L0 11L-9.5 5.5L-9.5 -5.5Z" stroke="#890000" fill="none" stroke-width="2"></path></g><g transform="translate(794 91)"><path d="M0 -10L8.7 -5L8.7 5L0 10L-8.7 5L-8.7 -5Z" stroke="#890000" fill="none" stroke-width="2"></path></g><g transform="translate(480 239)"><path d="M0 -9L7.8 -4.5L7.8 4.5L0 9L-7.8 4.5L-7.8 -4.5Z" stroke="#890000" fill="none" stroke-width="2"></path></g><g transform="translate(572 95)"><path d="M0 -10L8.7 -5L8.7 5L0 10L-8.7 5L-8.7 -5Z" stroke="#890000" fill="none" stroke-width="2"></path></g><g transform="translate(818 455)"><path d="M0 -11L9.5 -5.5L9.5 5.5L0 11L-9.5 5.5L-9.5 -5.5Z" stroke="#890000" fill="none" stroke-width="2"></path></g><g transform="translate(742 214)"><path d="M0 -8L6.9 -4L6.9 4L0 8L-6.9 4L-6.9 -4Z" stroke="#890000" fill="none" stroke-width="2"></path></g><g transform="translate(514 500)"><path d="M0 -8L6.9 -4L6.9 4L0 8L-6.9 4L-6.9 -4Z" stroke="#890000" fill="none" stroke-width="2"></path></g><g transform="translate(265 99)"><path d="M0 -9L7.8 -4.5L7.8 4.5L0 9L-7.8 4.5L-7.8 -4.5Z" stroke="#890000" fill="none" stroke-width="2"></path></g><g transform="translate(146 363)"><path d="M0 -9L7.8 -4.5L7.8 4.5L0 9L-7.8 4.5L-7.8 -4.5Z" stroke="#890000" fill="none" stroke-width="2"></path></g><g transform="translate(518 202)"><path d="M0 -9L7.8 -4.5L7.8 4.5L0 9L-7.8 4.5L-7.8 -4.5Z" stroke="#890000" fill="none" stroke-width="2"></path></g><g transform="translate(617 318)"><path d="M0 -8L6.9 -4L6.9 4L0 8L-6.9 4L-6.9 -4Z" stroke="#890000" fill="none" stroke-width="2"></path></g><g transform="translate(515 411)"><path d="M0 -11L9.5 -5.5L9.5 5.5L0 11L-9.5 5.5L-9.5 -5.5Z" stroke="#890000" fill="none" stroke-width="2"></path></g><g transform="translate(387 310)"><path d="M0 -9L7.8 -4.5L7.8 4.5L0 9L-7.8 4.5L-7.8 -4.5Z" stroke="#890000" fill="none" stroke-width="2"></path></g><g transform="translate(810 63)"><path d="M0 -11L9.5 -5.5L9.5 5.5L0 11L-9.5 5.5L-9.5 -5.5Z" stroke="#890000" fill="none" stroke-width="2"></path></g><g transform="translate(911 413)"><path d="M0 -8L6.9 -4L6.9 4L0 8L-6.9 4L-6.9 -4Z" stroke="#890000" fill="none" stroke-width="2"></path></g><g transform="translate(538 127)"><path d="M0 -8L6.9 -4L6.9 4L0 8L-6.9 4L-6.9 -4Z" stroke="#890000" fill="none" stroke-width="2"></path></g><g transform="translate(834 384)"><path d="M0 -8L6.9 -4L6.9 4L0 8L-6.9 4L-6.9 -4Z" stroke="#890000" fill="none" stroke-width="2"></path></g><g transform="translate(387 69)"><path d="M0 -8L6.9 -4L6.9 4L0 8L-6.9 4L-6.9 -4Z" stroke="#890000" fill="none" stroke-width="2"></path></g><g transform="translate(668 518)"><path d="M0 -9L7.8 -4.5L7.8 4.5L0 9L-7.8 4.5L-7.8 -4.5Z" stroke="#890000" fill="none" stroke-width="2"></path></g><g transform="translate(140 137)"><path d="M0 -9L7.8 -4.5L7.8 4.5L0 9L-7.8 4.5L-7.8 -4.5Z" stroke="#890000" fill="none" stroke-width="2"></path></g><g transform="translate(6 533)"><path d="M0 -10L8.7 -5L8.7 5L0 10L-8.7 5L-8.7 -5Z" stroke="#890000" fill="none" stroke-width="2"></path></g><g transform="translate(510 143)"><path d="M0 -9L7.8 -4.5L7.8 4.5L0 9L-7.8 4.5L-7.8 -4.5Z" stroke="#890000" fill="none" stroke-width="2"></path></g><g transform="translate(337 257)"><path d="M0 -8L6.9 -4L6.9 4L0 8L-6.9 4L-6.9 -4Z" stroke="#890000" fill="none" stroke-width="2"></path></g><g transform="translate(344 7)"><path d="M0 -10L8.7 -5L8.7 5L0 10L-8.7 5L-8.7 -5Z" stroke="#890000" fill="none" stroke-width="2"></path></g><g transform="translate(479 273)"><path d="M0 -10L8.7 -5L8.7 5L0 10L-8.7 5L-8.7 -5Z" stroke="#890000" fill="none" stroke-width="2"></path></g><g transform="translate(664 191)"><path d="M0 -9L7.8 -4.5L7.8 4.5L0 9L-7.8 4.5L-7.8 -4.5Z" stroke="#890000" fill="none" stroke-width="2"></path></g><g transform="translate(418 513)"><path d="M0 -9L7.8 -4.5L7.8 4.5L0 9L-7.8 4.5L-7.8 -4.5Z" stroke="#890000" fill="none" stroke-width="2"></path></g><g transform="translate(828 193)"><path d="M0 -9L7.8 -4.5L7.8 4.5L0 9L-7.8 4.5L-7.8 -4.5Z" stroke="#890000" fill="none" stroke-width="2"></path></g><g transform="translate(42 61)"><path d="M0 -9L7.8 -4.5L7.8 4.5L0 9L-7.8 4.5L-7.8 -4.5Z" stroke="#890000" fill="none" stroke-width="2"></path></g><g transform="translate(467 112)"><path d="M0 -11L9.5 -5.5L9.5 5.5L0 11L-9.5 5.5L-9.5 -5.5Z" stroke="#890000" fill="none" stroke-width="2"></path></g><g transform="translate(265 174)"><path d="M0 -9L7.8 -4.5L7.8 4.5L0 9L-7.8 4.5L-7.8 -4.5Z" stroke="#890000" fill="none" stroke-width="2"></path></g><g transform="translate(932 536)"><path d="M0 -8L6.9 -4L6.9 4L0 8L-6.9 4L-6.9 -4Z" stroke="#890000" fill="none" stroke-width="2"></path></g><g transform="translate(924 490)"><path d="M0 -11L9.5 -5.5L9.5 5.5L0 11L-9.5 5.5L-9.5 -5.5Z" stroke="#890000" fill="none" stroke-width="2"></path></g><g transform="translate(103 115)"><path d="M0 -11L9.5 -5.5L9.5 5.5L0 11L-9.5 5.5L-9.5 -5.5Z" stroke="#890000" fill="none" stroke-width="2"></path></g><g transform="translate(776 192)"><path d="M0 -9L7.8 -4.5L7.8 4.5L0 9L-7.8 4.5L-7.8 -4.5Z" stroke="#890000" fill="none" stroke-width="2"></path></g><g transform="translate(548 337)"><path d="M0 -11L9.5 -5.5L9.5 5.5L0 11L-9.5 5.5L-9.5 -5.5Z" stroke="#890000" fill="none" stroke-width="2"></path></g></g></svg>